<?xml version="1.0" encoding="utf-8"?>
<!-- Generator: Adobe Illustrator 21.0.0, SVG Export Plug-In . SVG Version: 6.00 Build 0)  -->
<!DOCTYPE svg PUBLIC "-//W3C//DTD SVG 1.1//EN" "http://www.w3.org/Graphics/SVG/1.1/DTD/svg11.dtd">
<svg version="1.1" id="Layer_1" xmlns="http://www.w3.org/2000/svg" xmlns:xlink="http://www.w3.org/1999/xlink" x="0px" y="0px"
	 viewBox="0 0 38 38" style="enable-background:new 0 0 38 38;" xml:space="preserve">
<style type="text/css">
	.st0{fill:#F9162D;}
	.st1{opacity:0.2;fill:url(#SVGID_1_);enable-background:new    ;}
	.st2{fill:#FFFFFF;}
</style>
<title>k_cards_02</title>
<g id="Layer_2">
	<g id="CONTENT">
		<circle class="st0" cx="19" cy="19" r="19"/>
		
			<linearGradient id="SVGID_1_" gradientUnits="userSpaceOnUse" x1="19" y1="-13.5" x2="19" y2="24.5" gradientTransform="matrix(1 0 0 -1 0 24.5)">
			<stop  offset="0" style="stop-color:#000000"/>
			<stop  offset="1" style="stop-color:#FFFFFF"/>
		</linearGradient>
		<circle class="st1" cx="19" cy="19" r="19"/>
		<circle class="st0" cx="19" cy="19" r="18.5"/>
		<path class="st2" d="M8,10V8h9v2H8z M8,15v2h9v-2H8z M17,13.5v-2H8v2H17z M30,13.5v-2h-9v2H30z M30,8v2h-3.5V8H30z M24.5,10H21V8
			h3.5V10z M30,15v2h-3.5v-2H30z M24.5,17H21v-2h3.5V17z M17,23v-2H8v2H17z M17,30v-2H8v2H17z M17,24.5v2h-3.5v-2H17z M11.5,26.5H8
			v-2h3.5V26.5z M30,21v2h-3.5v-2H30z M24.5,23H21v-2h3.5V23z M30,24.5v2h-3.5v-2H30z M24.5,26.5H21v-2h3.5V26.5z M30,28v2h-3.5v-2
			H30z M24.5,30H21v-2h3.5V30z"/>
	</g>
</g>
</svg>
